<?xml version="1.0" encoding="UTF-8"?>
<svg version="1.1" viewBox="0 0 2048 1731" width="698" height="590" xmlns="http://www.w3.org/2000/svg">
<path transform="translate(972,235)" d="m0 0h7l11 4 28 16 17 10 28 16 24 14 104 60 28 16 26 15 24 14 25 14 17 10 26 15 17 10 10 8 5 8 1 4v8l-5 10-7 7-23 13-52 30-28 16-24 14-26 15-28 16-24 14-26 15-20 11-3 1h-12l-16-8-104-60-24-14-26-15-21-12-24-14-26-15-28-16-78-45-12-7-5-1-22 13-21 12-24 14 2 4 13 8 56 32 24 14 28 16 26 15 17 10 23 13 24 14 26 15 24 14 26 15 28 16 12 8 8 8 2 4 1 6v57l1 412 17-10 45-26 6-4h2v-217l1-200 4-8 8-8 29-17 28-16 24-14 23-13 24-14 28-16 24-14 28-16 29-17 14-7 4-1h7l10 3 9 9 3 6v440l-4 6-5 5-10 7-25 14-15 9-28 16-26 15-17 10-11 5-4 1h-7l-10-4-6-5-5-9-1-6v-170l-19-6-9-6-9-8-7-12-5-17-1-7v-10l3-19 4-15 8-18 8-14 7-9 12-14 12-10 14-9 13-5 10-2h15l12 3 9 5 10 9 6 8 5 11 3 11 1 16-1 14-4 17-9 22-8 14-11 14-16 16-1 4v140l6-2 24-14 26-15 13-8 1-1 1-365-16 8-22 13-26 15-28 16-24 14-21 12-26 15-21 12-9 6-1 6v409l-3 8-5 6-14 9-28 16-26 15-24 14-26 15-12 7-8 2-10-1-16-8-41-24-52-30-17-10-10-8-5-9v-414l-1-3-20-12-28-16-24-14-28-16-52-30-24-14-16-9h-1v364l3 3 26 15 24 14 18 10v-140l-2-5-12-12-9-11-10-15-9-19-6-20-2-12v-19l4-16 7-14 9-10 8-6 12-5 6-1h15l10 2 12 5 12 7 14 11 8 8 10 13 9 15 7 15 5 15 3 16 1 12-2 17-5 15-7 11-10 9-10 5-16 4-1 177-5 8-8 7-8 3h-7l-12-4-26-15-24-14-21-12-26-15-22-13-10-8-4-6-1-6v-430l3-9 7-8 6-4 6-2h7l12 4 52 30 24 14 23 13 24 14 28 16 26 15 27 16 28 16 14 9 8 9 2 5 1 416 15 9 24 14 21 12 10 6v-453l-4-2-52-30-24-14-26-15-28-16-26-15-24-14-28-16-104-60-28-16-11-7-9-8-4-10v-7l4-9 5-6 14-9 28-16 24-14 26-15 27-16 12-6 9-2 12 3 28 16 22 13 26 15 48 28 28 16 24 14 21 12 26 15 21 12 24 14 26 15 21 12 29 17 11 6 6-2 25-14 17-10 78-45 24-14 28-16 14-9 1-3-5-2-16-10-28-16-27-16-28-16-52-30-21-12-104-60-24-14-8-4-6 1-28 16-24 14-13 8 4 5 29 17 28 17 29 17 23 14 4 2 9-1 15-4 17-2h19l18 2 21 6 16 8 10 7 9 8 7 10 5 12 1 3v20l-5 13-7 11-8 8-15 10-16 7-19 5-14 2h-23l-25-4-17-6-13-7-12-9-9-10-7-14-3-13 1-11 4-16-4-2-27-16-32-19-29-17-15-9-29-17-12-9-5-6-2-5v-11l3-7 7-8 13-8 25-14 17-10 52-30 17-10zm89 211-15 3-14 7-3 3 2 6 9 6 12 4 14 2h16l14-2 16-6 5-4 1-5-4-5-9-5-13-3-8-1zm-354 309-3 7v8l4 17 6 14 8 12 8 9 10 8 8 4 5-1 2-10-2-14-6-16-7-13-11-13-10-8-8-4zm534 0-8 3-13 11-9 11-7 12-5 13-3 15 1 13 5 1 10-5 11-9 9-11 9-17 4-13 1-5v-13l-3-6z" fill="#299CDC"/>
<path transform="translate(972,235)" d="m0 0h7l11 4 28 16 17 10 28 16 24 14 104 60 28 16 26 15 24 14 25 14 17 10 26 15 17 10 10 8 5 8 1 4v8l-5 10-7 7-23 13-52 30-28 16-24 14-26 15-28 16-24 14-26 15-20 11-3 1h-12l-16-8-104-60-24-14-26-15-21-12-24-14-26-15-28-16-78-45-12-7-5-1-22 13-21 12-24 14 2 4 13 8 56 32 24 14 28 16 26 15 17 10 23 13 24 14 26 15 24 14 26 15 28 16 12 8 8 8 2 4 1 6v468l-3 3-19 11-6 1-17-10-6-4-1-85v-368l-4-2-52-30-24-14-26-15-28-16-26-15-24-14-28-16-104-60-28-16-11-7-9-8-4-10v-7l4-9 5-6 14-9 28-16 24-14 26-15 27-16 12-6 9-2 12 3 28 16 22 13 26 15 48 28 28 16 24 14 21 12 26 15 21 12 24 14 26 15 21 12 29 17 11 6 6-2 25-14 17-10 78-45 24-14 28-16 14-9 1-3-5-2-16-10-28-16-27-16-28-16-52-30-21-12-104-60-24-14-8-4-6 1-28 16-24 14-13 8 4 5 29 17 28 17 29 17 23 14 4 2 9-1 15-4 17-2h19l18 2 21 6 16 8 10 7 9 8 7 10 5 12 1 3v20l-5 13-7 11-8 8-15 10-16 7-19 5-14 2h-23l-25-4-17-6-13-7-12-9-9-10-7-14-3-13 1-11 4-16-4-2-27-16-32-19-29-17-15-9-29-17-12-9-5-6-2-5v-11l3-7 7-8 13-8 25-14 17-10 52-30 17-10zm89 211-15 3-14 7-3 3 2 6 9 6 12 4 14 2h16l14-2 16-6 5-4 1-5-4-5-9-5-13-3-8-1z" fill="#8DBD49"/>
<path transform="translate(1502,1347)" d="m0 0h45l5 18 31 124 3 8 2-4 14-57 7-32 12-49 3-7 47-1 3 3 17 71 14 57 5 20 2-2 8-29 18-73 11-44 2-3h42l-1 8-20 62-16 50-16 51-6 20-2 3h-47l-4-13-11-48-20-82-2-6-2 2-16 65-12 50-7 29-2 3h-46l-3-5-19-61-10-31-16-50-13-41z" fill="#2A9CDC"/>
<path transform="translate(785,1271)" d="m0 0h41v103l3-3 7-11 9-8 12-6 13-3 10-1h15l19 3 12 5 11 7 7 7 8 13 4 13 2 22v129h-41l-1-1-1-131-3-14-5-9-4-5-9-5-12-3h-8l-14 3-10 6-8 8-7 12-5 16-2 12-1 30v80l-1 1-40 1-2-1v-269z" fill="#299CDC"/>
<path transform="translate(258,1342)" d="m0 0h15l18 2 14 4 11 6 9 8 7 11 4 10 2 10 1 11 1 92 2 33 1 11-1 1h-39l-2-4-2-17h-2l-6 11-5 5-12 6-12 3-7 1h-26l-16-4-13-7-10-9-6-9-4-9-2-11v-12l3-15 8-16 11-11 14-8 18-6 23-4 13-1 28-1 1-1v-23l-3-11-4-6-6-5-8-3-5-1h-12l-12 3-9 6-6 10-5 17-21 1h-16l-3-1-1-7 4-15 4-10 8-11 8-8 14-8 13-5 10-2zm14 108-16 2-13 4-11 7-7 8-3 7v16l4 9 6 7 11 5 6 1h14l10-3 11-7 7-8 5-12 2-11v-23l-7-2z" fill="#299CDC"/>
<path transform="translate(1362,1342)" d="m0 0 22 1 18 4 12 5 11 6 11 9 8 9 9 14 7 17 3 12 2 19v12l-2 19-6 20-8 16-8 11-9 9-10 7-16 8-14 4-13 2h-25l-17-3-15-5-15-8-11-10-5-5-8-11-8-17-5-18-2-16v-19l3-20 5-15 8-16 9-12 9-9 14-9 12-5 15-4zm0 30-15 3-11 6-10 10-8 14-4 12-2 12-1 18 2 19 5 17 8 14 9 9 12 7 12 3h15l13-4 9-5 8-7 7-10 5-10 4-15 2-19-1-17-4-18-5-12-8-11-9-8-9-5-14-3z" fill="#299CDC"/>
<path transform="translate(636,1342)" d="m0 0h14l15 2 16 5 14 8 10 8 10 13 8 17 4 16v4h-41l-3-8-7-16-6-8-9-6-8-3-4-1h-13l-12 3-8 4-9 8-7 11-5 13-2 9-1 9v26l3 19 5 14 7 11 7 7 14 7 5 1h13l13-4 8-6 8-9 5-11 4-8 1-1h40l1 2-5 16-8 16-4 6-9 10-10 7-14 7-13 4-11 2h-27l-16-3-13-5-11-6-13-11-10-13-8-17-4-15-2-14v-30l2-14 4-14 7-16 7-11 9-10 9-8 14-8 16-6 10-2z" fill="#299CDC"/>
<path transform="translate(1090,1266)" d="m0 0 23 1 4 1 1 2v28l-1 1h-23l-9 3-7 8-2 12-1 27h39v28l-3 1h-36v163h-41v-163h-18l-3-2v-27l20-1 1-31 3-16 7-14 8-9 12-7 15-4z" fill="#2A9CDC"/>
<path transform="translate(1162,1273)" d="m0 0h40l1 1v222l1 9 2 5 11 2 8 1 1 3v25l-1 1-10 1h-26l-13-4-10-9-4-11-1-14v-225z" fill="#2A9CDC"/>
<path transform="translate(491,1343)" d="m0 0h19l4 2v31l-2 1-21 2-11 4-9 7-7 8-5 11-3 12-1 13v107l-39 1-4-2v-160l1-32 1-1h39l1 1 1 26 7-9 6-9 5-5 7-5z" fill="#2B9DDC"/>
</svg>
