<?xml version="1.0" encoding="UTF-8"?>
<svg version="1.1" viewBox="0 0 2048 1153" width="845" height="476" xmlns="http://www.w3.org/2000/svg">
<path transform="translate(432,269)" d="m0 0 9 1 16 8 22 13 24 14 28 16 24 14 23 13 24 14 28 16 29 17 28 16 15 9 7 8 2 8-2 7-4 5-11 7-28 16-26 15-24 14-21 12-24 14-42 24-7 2-7-1-19-10-22-13-52-30-24-14-28-16-26-15-24-14-26-15-24-14-4-2h-6l-27 16-18 10 5 5 18 10 27 16 25 14 22 13 26 15 28 16 27 16 25 14 17 10 12 8 5 7 1 33v298l-1 2 18-10 22-13 10-6 1-8v-282l3-7 8-7 52-30 24-14 78-45 16-9 7-2 8 1 6 4 5 7v308l-4 6-6 5-26 15-24 14-26 15-11 6-9 1-8-4-6-7-1-3v-122l-12-3-9-6-8-9-5-13-1-5v-14l4-18 7-16 7-12 11-12 14-11 11-5 9-2h12l10 3 10 8 6 9 4 14v16l-4 18-5 12-6 11-11 14-7 6-1 2-1 100 19-10 24-14 7-5v-254l-16 8-24 14-71 41-24 14v289l-3 7-9 8-25 14-22 13-24 14-14 8-10 1-10-4-22-13-26-15-24-14-11-7-7-8-1-3v-289l-10-7-28-16-24-14-28-16-24-14-18-10-4-2 1 255 9 6 21 12 19 11v-100l-4-5-5-5-8-9-8-14-6-14-3-12v-22l4-12 7-10 8-6 6-3 5-1h13l13 4 10 6 10 8 10 10 9 15 6 15 3 11 1 7v12l-3 14-5 9-4 5-11 7-11 3-1 123-4 6-5 5-7 2-8-1-17-9-48-28-22-13-8-7-2-3v-309l4-6 5-4 6-2 8 1 16 8 24 14 23 13 29 17 21 12 24 14 26 15 13 8 7 8 1 3v290l8 5 24 14 18 10-1-316-22-13-26-15-24-14-28-16-29-17-25-14-22-13-52-30-17-10-10-9-1-3v-10l4-6 7-6 23-13 48-28 15-8 8-1 9 3 23 13 24 14 26 15 24 14 52 30 24 14 18 10 15 9 26 15 12 7 7-1 27-15 22-13 52-30 27-16 1-3-27-16-26-15-29-17-28-16-24-14-26-15-28-16-22-13-8-4-6 2-26 15-17 10v2l35 21 28 17 15 9 2 1h7l14-3 8-1h14l20 3 13 5 12 7 8 8 5 9 3 10v8l-3 10-6 10-8 8-12 7-16 5-14 2h-18l-14-2-14-5-12-7-8-7-7-11-2-6v-14l2-10-9-6-32-19-13-8-44-26-5-4-4-6-1-3v-7l5-8 14-9 28-16 27-16 21-12zm64 147-10 2-9 4-5 5 5 5 9 4 11 2h15l13-3 10-6-1-4-6-5-13-4zm-248 217-2 2v12l4 13 7 13 9 9 11 6 3-1 1-2v-10l-5-16-6-10-7-8-10-7zm369 1-9 7-5 5-6 8-6 13-2 10v9l2 2 5-1 9-6 7-7 6-10 5-11 2-9-1-9-1-1z" fill="#289ADA"/>
<path transform="translate(432,269)" d="m0 0 9 1 16 8 22 13 24 14 28 16 24 14 23 13 24 14 28 16 29 17 28 16 15 9 7 8 2 8-2 7-4 5-11 7-28 16-26 15-24 14-21 12-24 14-42 24-7 2-7-1-19-10-22-13-52-30-24-14-28-16-26-15-24-14-26-15-24-14-4-2h-6l-27 16-18 10 5 5 18 10 27 16 25 14 22 13 26 15 28 16 27 16 25 14 17 10 12 8 5 7 1 33v298l-8 6-8 4h-5l-15-9-1-316-22-13-26-15-24-14-28-16-29-17-25-14-22-13-52-30-17-10-10-9-1-3v-10l4-6 7-6 23-13 48-28 15-8 8-1 9 3 23 13 24 14 26 15 24 14 52 30 24 14 18 10 15 9 26 15 12 7 7-1 27-15 22-13 52-30 27-16 1-3-27-16-26-15-29-17-28-16-24-14-26-15-28-16-22-13-8-4-6 2-26 15-17 10v2l35 21 28 17 15 9 2 1h7l14-3 8-1h14l20 3 13 5 12 7 8 8 5 9 3 10v8l-3 10-6 10-8 8-12 7-16 5-14 2h-18l-14-2-14-5-12-7-8-7-7-11-2-6v-14l2-10-9-6-32-19-13-8-44-26-5-4-4-6-1-3v-7l5-8 14-9 28-16 27-16 21-12zm64 147-10 2-9 4-5 5 5 5 9 4 11 2h15l13-3 10-6-1-4-6-5-13-4z" fill="#8BBD49"/>
<path transform="translate(1725,560)" d="m0 0h32l25 100 3 3 2-11 15-64 6-26 2-2h33l3 8 7 30 16 64 2 1 4-16 20-82 2-5h30l-2 9-18 56-11 35-10 31-2 3h-32l-4-14-9-38-12-48-2-2-19 78-5 21-2 3h-32l-3-7-12-39-16-51-10-31z" fill="#289ADA"/>
<path transform="translate(1238,507)" d="m0 0h27v70l4-4 4-6 5-4 8-4 16-3h10l16 3 12 6 8 8 5 10 2 8 1 11 1 91-1 1h-28l-1-1v-78l-1-15-3-10-6-7-9-4h-16l-8 3-8 7-6 12-3 13-1 12-1 68h-29v-186z" fill="#289ADA"/>
<path transform="translate(875,556)" d="m0 0h13l17 3 9 4 6 4 7 8 4 9 2 16 1 74 1 19-1 1h-26l-2-3-1-12-2 1-4 8-5 4-11 4-15 2-15-1-11-4-9-6-7-8-4-10-1-10 2-14 5-10 6-7 11-7 15-5 18-3 25-1v-18l-3-9-5-4-5-2h-18l-8 4-6 9-3 10-2 1h-25l-1-1 1-11 5-12 7-9 10-7 12-5zm14 75-16 2-10 4-8 7-3 6-1 9 3 9 7 6 6 2 11 1 10-3 6-4 6-7 4-11 1-16-1-4-3-1z" fill="#289ADA"/>
<path transform="translate(1629,556)" d="m0 0 17 1 16 4 13 7 8 7 9 13 5 12 3 12 1 18-2 17-4 12-7 13-9 10-8 6-13 6-13 3-15 1-16-2-14-5-11-7-10-10-6-10-5-12-3-16v-19l3-15 6-15 7-10 7-7 11-7 14-5zm0 21-12 3-8 6-7 8-5 11-2 10v24l4 15 7 11 8 7 10 4h17l10-4 8-7 6-8 4-11 2-13v-12l-3-16-4-10-6-8-8-6-8-3z" fill="#289ADA"/>
<path transform="translate(1136,556)" d="m0 0 16 1 12 3 13 7 10 10 7 12 4 13-1 5h-27l-3-5-4-11-7-8-9-4h-18l-10 5-6 7-5 10-3 15v20l3 16 6 12 4 5 9 5 3 1h14l10-4 3-3h2l9-18 1-1h28l-1 7-5 12-7 11-9 8-14 7-12 3-16 1-15-2-13-5-10-7-8-8-8-14-4-13-1-6v-28l4-16 8-16 8-10 11-8 13-6 8-2z" fill="#289ADA"/>
<path transform="translate(1439,504)" d="m0 0h21l6 2v20l-17 1-8 4-3 5-1 4v20l26 1 1 3v15l-3 2h-25l1 112-1 1h-28l-1-112-13-1-1-1v-12l1-7 13-1 1-23 3-12 6-10 9-7z" fill="#289ADA"/>
<path transform="translate(1494,509)" d="m0 0h29v156l2 6 4 2 9 1 1 1v18l-4 2h-23l-10-4-6-8-2-12z" fill="#289ADA"/>
<path transform="translate(1036,557)" d="m0 0h14l2 1v22l-15 2-10 4-7 6-6 12-2 11-1 79h-29v-133l1-1h27l1 1v17h2l2-5 7-10 9-5z" fill="#289ADA"/>
</svg>
